<svg version="1.1" viewBox="0.0 0.0 1971.0 235.0" fill="none" stroke="none" stroke-linecap="square" stroke-miterlimit="10" xmlns:xlink="http://www.w3.org/1999/xlink" xmlns="http://www.w3.org/2000/svg"><clipPath id="g15c46423d80_0_74.0"><path d="m0 0l1971.0 0l0 235.0l-1971.0 0l0 -235.0z" clip-rule="nonzero"/></clipPath><g clip-path="url(#g15c46423d80_0_74.0)"><path fill="#000000" fill-opacity="0.0" d="m0 0l1971.0 0l0 235.0l-1971.0 0z" fill-rule="evenodd"/><path fill="#d0604c" d="m0 0.002624672l1970.9921 0l0 234.99213l-1970.9921 0z" fill-rule="evenodd"/><path stroke="#d0604c" stroke-width="1.0" stroke-linejoin="round" stroke-linecap="butt" d="m0 0.002624672l1970.9921 0l0 234.99213l-1970.9921 0z" fill-rule="evenodd"/><path fill="#ffffff" d="m425.7033 51.18831l0 0l0 0l37.93524 91.646255l-75.870514 0l37.935272 -91.646255l0 0l0 0zm-12.294067 -27.041237l-79.696655 186.71356l25.897308 0l19.31717 -46.66754l93.55246 0l19.31717 46.66754l26.429138 0l-79.94208 -186.71356z" fill-rule="evenodd"/><path stroke="#ffffff" stroke-width="1.0" stroke-linejoin="round" stroke-linecap="butt" d="m425.7033 51.18831l0 0l0 0l37.93524 91.646255l-75.870514 0l37.935272 -91.646255l0 0l0 0zm-12.294067 -27.041237l-79.696655 186.71356l25.897308 0l19.31717 -46.66754l93.55246 0l19.31717 46.66754l26.429138 0l-79.94208 -186.71356z" fill-rule="evenodd"/><path fill="#ffffff" d="m640.7677 24.148293l0 186.71356l25.160889 0l0 -186.71356z" fill-rule="evenodd"/><path stroke="#ffffff" stroke-width="1.0" stroke-linejoin="round" stroke-linecap="butt" d="m640.7677 24.148293l0 186.71356l25.160889 0l0 -186.71356z" fill-rule="evenodd"/><path fill="#ffffff" d="m883.71686 47.372314c16.092102 0 28.283875 3.6465797 36.57538 10.939739c8.291504 7.2931557 12.437256 17.596188 12.437256 30.909107c0 13.341843 -4.145752 23.702766 -12.437256 31.082748c-8.291504 7.379982 -20.483276 11.069977 -36.57538 11.069977l-42.71216 0l0 -84.00157zm-67.87305 -23.225243l0 186.71356l25.160889 0l0 -56.825867l43.44861 0c3.876709 0 7.6098633 -0.16242981 11.199341 -0.48731995l0 0l37.854187 57.313187l27.370117 0l-41.737244 -62.506775l0 0c1.644165 -0.62976074 3.2420654 -1.3118896 4.793701 -2.0463715c10.882568 -5.1515045 19.25592 -12.574905 25.119995 -22.27018c5.8640137 -9.695274 8.796082 -21.300652 8.796082 -34.816154c0 -13.515495 -2.9320679 -25.149826 -8.796082 -34.90298c-5.8640747 -9.782093 -14.237427 -17.248898 -25.119995 -22.40042c-10.882629 -5.180462 -24.042664 -7.770689 -39.480103 -7.770689z" fill-rule="evenodd"/><path stroke="#ffffff" stroke-width="1.0" stroke-linejoin="round" stroke-linecap="butt" d="m883.71686 47.372314c16.092102 0 28.283875 3.6465797 36.57538 10.939739c8.291504 7.2931557 12.437256 17.596188 12.437256 30.909107c0 13.341843 -4.145752 23.702766 -12.437256 31.082748c-8.291504 7.379982 -20.483276 11.069977 -36.57538 11.069977l-42.71216 0l0 -84.00157zm-67.87305 -23.225243l0 186.71356l25.160889 0l0 -56.825867l43.44861 0c3.876709 0 7.6098633 -0.16242981 11.199341 -0.48731995l0 0l37.854187 57.313187l27.370117 0l-41.737244 -62.506775l0 0c1.644165 -0.62976074 3.2420654 -1.3118896 4.793701 -2.0463715c10.882568 -5.1515045 19.25592 -12.574905 25.119995 -22.27018c5.8640137 -9.695274 8.796082 -21.300652 8.796082 -34.816154c0 -13.515495 -2.9320679 -25.149826 -8.796082 -34.90298c-5.8640747 -9.782093 -14.237427 -17.248898 -25.119995 -22.40042c-10.882629 -5.180462 -24.042664 -7.770689 -39.480103 -7.770689z" fill-rule="evenodd"/><path fill="#ffffff" d="m59.83858 24.148293l0 186.71356l25.1609 0l0 -83.22016l101.01181 0l0 83.22016l25.160889 0l0 -186.71356l-25.160889 0l0 80.31158l-101.01181 0l0 -80.31158z" fill-rule="evenodd"/><path stroke="#ffffff" stroke-width="1.0" stroke-linejoin="round" stroke-linecap="butt" d="m59.83858 24.148293l0 186.71356l25.1609 0l0 -83.22016l101.01181 0l0 83.22016l25.160889 0l0 -186.71356l-25.160889 0l0 80.31158l-101.01181 0l0 -80.31158z" fill-rule="evenodd"/><path fill="#ffffff" d="m1577.887 51.18953l0 0l0 0l37.935303 91.646255l-75.87048 0l37.93518 -91.646255l0 0l0 0zm-12.294067 -27.041237l-79.696655 186.71356l25.897339 0l19.317139 -46.66754l93.55249 0l19.317139 46.66754l26.4292 0l-79.94214 -186.71356z" fill-rule="evenodd"/><path stroke="#ffffff" stroke-width="1.0" stroke-linejoin="round" stroke-linecap="butt" d="m1577.887 51.18953l0 0l0 0l37.935303 91.646255l-75.87048 0l37.93518 -91.646255l0 0l0 0zm-12.294067 -27.041237l-79.696655 186.71356l25.897339 0l19.317139 -46.66754l93.55249 0l19.317139 46.66754l26.4292 0l-79.94214 -186.71356z" fill-rule="evenodd"/><path fill="#ffffff" d="m1293.0679 47.372314c14.564697 0 27.165527 2.937523 37.802734 8.812565c10.664429 5.8461075 18.928589 14.021969 24.792725 24.527592c5.8640137 10.476677 8.7960205 22.747711 8.7960205 36.813095c0 13.862785 -2.9320068 26.0904 -8.7960205 36.682854c-5.8641357 10.563507 -14.128296 18.782791 -24.792725 24.657822c-10.637207 5.8461 -23.238037 8.769165 -37.802734 8.769165l-47.4989 0l0 -140.26309zm-72.65979 -23.225243l0 186.71356l74.173584 0c18.764893 0 35.307007 -3.9070435 49.62622 -11.721146c14.319214 -7.843033 25.460938 -18.782776 33.42517 -32.81923c7.9642334 -14.036438 11.946289 -30.30133 11.946289 -48.7947c0 -18.49337 -3.9820557 -34.758278 -11.946289 -48.794716c-7.9642334 -14.065376 -19.105957 -25.005116 -33.42517 -32.819218c-14.319214 -7.8430386 -30.861328 -11.764561 -49.62622 -11.764561z" fill-rule="evenodd"/><path stroke="#ffffff" stroke-width="1.0" stroke-linejoin="round" stroke-linecap="butt" d="m1293.0679 47.372314c14.564697 0 27.165527 2.937523 37.802734 8.812565c10.664429 5.8461075 18.928589 14.021969 24.792725 24.527592c5.8640137 10.476677 8.7960205 22.747711 8.7960205 36.813095c0 13.862785 -2.9320068 26.0904 -8.7960205 36.682854c-5.8641357 10.563507 -14.128296 18.782791 -24.792725 24.657822c-10.637207 5.8461 -23.238037 8.769165 -37.802734 8.769165l-47.4989 0l0 -140.26309zm-72.65979 -23.225243l0 186.71356l74.173584 0c18.764893 0 35.307007 -3.9070435 49.62622 -11.721146c14.319214 -7.843033 25.460938 -18.782776 33.42517 -32.81923c7.9642334 -14.036438 11.946289 -30.30133 11.946289 -48.7947c0 -18.49337 -3.9820557 -34.758278 -11.946289 -48.794716c-7.9642334 -14.065376 -19.105957 -25.005116 -33.42517 -32.819218c-14.319214 -7.8430386 -30.861328 -11.764561 -49.62622 -11.764561z" fill-rule="evenodd"/><path fill="#ffffff" d="m1746.5183 24.148293l69.87781 121.641365l0 0l0 65.072205l24.915405 0l0 -64.61018l0 0l69.877686 -122.103386l-24.915405 0l-56.526367 98.50567l-56.30896 -98.50567z" fill-rule="evenodd"/><path stroke="#ffffff" stroke-width="1.0" stroke-linejoin="round" stroke-linecap="butt" d="m1746.5183 24.148293l69.87781 121.641365l0 0l0 65.072205l24.915405 0l0 -64.61018l0 0l69.877686 -122.103386l-24.915405 0l-56.526367 98.50567l-56.30896 -98.50567z" fill-rule="evenodd"/><path fill="#f2e0d2" fill-opacity="0.8571" d="m425.7033 51.18831l0 0l0 0l37.93524 91.646255l-75.870514 0l37.935272 -91.646255l0 0l0 0zm-12.294067 -27.041237l-79.696655 186.71356l25.897308 0l19.31717 -46.66754l93.55246 0l19.31717 46.66754l26.429138 0l-79.94208 -186.71356z" fill-rule="evenodd"/><path stroke="#f2e0d2" stroke-width="1.0" stroke-linejoin="round" stroke-linecap="butt" d="m425.7033 51.18831l0 0l0 0l37.93524 91.646255l-75.870514 0l37.935272 -91.646255l0 0l0 0zm-12.294067 -27.041237l-79.696655 186.71356l25.897308 0l19.31717 -46.66754l93.55246 0l19.31717 46.66754l26.429138 0l-79.94208 -186.71356z" fill-rule="evenodd"/><path fill="#f2e0d2" fill-opacity="0.8571" d="m640.7677 24.148293l0 186.71356l25.160889 0l0 -186.71356z" fill-rule="evenodd"/><path stroke="#f2e0d2" stroke-width="1.0" stroke-linejoin="round" stroke-linecap="butt" d="m640.7677 24.148293l0 186.71356l25.160889 0l0 -186.71356z" fill-rule="evenodd"/><path fill="#f2e0d2" fill-opacity="0.8571" d="m883.71686 47.372314c16.092102 0 28.283875 3.6465797 36.57538 10.939739c8.291504 7.2931557 12.437256 17.596188 12.437256 30.909107c0 13.341843 -4.145752 23.702766 -12.437256 31.082748c-8.291504 7.379982 -20.483276 11.069977 -36.57538 11.069977l-42.71216 0l0 -84.00157zm-67.87305 -23.225243l0 186.71356l25.160889 0l0 -56.825867l43.44861 0c3.876709 0 7.6098633 -0.16242981 11.199341 -0.48731995l0 0l37.854187 57.313187l27.370117 0l-41.737244 -62.506775l0 0c1.644165 -0.62976074 3.2420654 -1.3118896 4.793701 -2.0463715c10.882568 -5.1515045 19.25592 -12.574905 25.119995 -22.27018c5.8640137 -9.695274 8.796082 -21.300652 8.796082 -34.816154c0 -13.515495 -2.9320679 -25.149826 -8.796082 -34.90298c-5.8640747 -9.782093 -14.237427 -17.248898 -25.119995 -22.40042c-10.882629 -5.180462 -24.042664 -7.770689 -39.480103 -7.770689z" fill-rule="evenodd"/><path stroke="#f2e0d2" stroke-width="1.0" stroke-linejoin="round" stroke-linecap="butt" d="m883.71686 47.372314c16.092102 0 28.283875 3.6465797 36.57538 10.939739c8.291504 7.2931557 12.437256 17.596188 12.437256 30.909107c0 13.341843 -4.145752 23.702766 -12.437256 31.082748c-8.291504 7.379982 -20.483276 11.069977 -36.57538 11.069977l-42.71216 0l0 -84.00157zm-67.87305 -23.225243l0 186.71356l25.160889 0l0 -56.825867l43.44861 0c3.876709 0 7.6098633 -0.16242981 11.199341 -0.48731995l0 0l37.854187 57.313187l27.370117 0l-41.737244 -62.506775l0 0c1.644165 -0.62976074 3.2420654 -1.3118896 4.793701 -2.0463715c10.882568 -5.1515045 19.25592 -12.574905 25.119995 -22.27018c5.8640137 -9.695274 8.796082 -21.300652 8.796082 -34.816154c0 -13.515495 -2.9320679 -25.149826 -8.796082 -34.90298c-5.8640747 -9.782093 -14.237427 -17.248898 -25.119995 -22.40042c-10.882629 -5.180462 -24.042664 -7.770689 -39.480103 -7.770689z" fill-rule="evenodd"/><path fill="#f2e0d2" fill-opacity="0.8571" d="m59.83858 24.148293l0 186.71356l25.1609 0l0 -83.22016l101.01181 0l0 83.22016l25.160889 0l0 -186.71356l-25.160889 0l0 80.31158l-101.01181 0l0 -80.31158z" fill-rule="evenodd"/><path stroke="#f2e0d2" stroke-width="1.0" stroke-linejoin="round" stroke-linecap="butt" d="m59.83858 24.148293l0 186.71356l25.1609 0l0 -83.22016l101.01181 0l0 83.22016l25.160889 0l0 -186.71356l-25.160889 0l0 80.31158l-101.01181 0l0 -80.31158z" fill-rule="evenodd"/><path fill="#f2e0d2" fill-opacity="0.8571" d="m1577.887 51.18953l0 0l0 0l37.935303 91.646255l-75.87048 0l37.93518 -91.646255l0 0l0 0zm-12.294067 -27.041237l-79.696655 186.71356l25.897339 0l19.317139 -46.66754l93.55249 0l19.317139 46.66754l26.4292 0l-79.94214 -186.71356z" fill-rule="evenodd"/><path stroke="#f2e0d2" stroke-width="1.0" stroke-linejoin="round" stroke-linecap="butt" d="m1577.887 51.18953l0 0l0 0l37.935303 91.646255l-75.87048 0l37.93518 -91.646255l0 0l0 0zm-12.294067 -27.041237l-79.696655 186.71356l25.897339 0l19.317139 -46.66754l93.55249 0l19.317139 46.66754l26.4292 0l-79.94214 -186.71356z" fill-rule="evenodd"/><path fill="#f2e0d2" fill-opacity="0.8571" d="m1293.0679 47.372314c14.564697 0 27.165527 2.937523 37.802734 8.812565c10.664429 5.8461075 18.928589 14.021969 24.792725 24.527592c5.8640137 10.476677 8.7960205 22.747711 8.7960205 36.813095c0 13.862785 -2.9320068 26.0904 -8.7960205 36.682854c-5.8641357 10.563507 -14.128296 18.782791 -24.792725 24.657822c-10.637207 5.8461 -23.238037 8.769165 -37.802734 8.769165l-47.4989 0l0 -140.26309zm-72.65979 -23.225243l0 186.71356l74.173584 0c18.764893 0 35.307007 -3.9070435 49.62622 -11.721146c14.319214 -7.843033 25.460938 -18.782776 33.42517 -32.81923c7.9642334 -14.036438 11.946289 -30.30133 11.946289 -48.7947c0 -18.49337 -3.9820557 -34.758278 -11.946289 -48.794716c-7.9642334 -14.065376 -19.105957 -25.005116 -33.42517 -32.819218c-14.319214 -7.8430386 -30.861328 -11.764561 -49.62622 -11.764561z" fill-rule="evenodd"/><path stroke="#f2e0d2" stroke-width="1.0" stroke-linejoin="round" stroke-linecap="butt" d="m1293.0679 47.372314c14.564697 0 27.165527 2.937523 37.802734 8.812565c10.664429 5.8461075 18.928589 14.021969 24.792725 24.527592c5.8640137 10.476677 8.7960205 22.747711 8.7960205 36.813095c0 13.862785 -2.9320068 26.0904 -8.7960205 36.682854c-5.8641357 10.563507 -14.128296 18.782791 -24.792725 24.657822c-10.637207 5.8461 -23.238037 8.769165 -37.802734 8.769165l-47.4989 0l0 -140.26309zm-72.65979 -23.225243l0 186.71356l74.173584 0c18.764893 0 35.307007 -3.9070435 49.62622 -11.721146c14.319214 -7.843033 25.460938 -18.782776 33.42517 -32.81923c7.9642334 -14.036438 11.946289 -30.30133 11.946289 -48.7947c0 -18.49337 -3.9820557 -34.758278 -11.946289 -48.794716c-7.9642334 -14.065376 -19.105957 -25.005116 -33.42517 -32.819218c-14.319214 -7.8430386 -30.861328 -11.764561 -49.62622 -11.764561z" fill-rule="evenodd"/><path fill="#f2e0d2" fill-opacity="0.8571" d="m1746.5183 24.148293l69.87781 121.641365l0 0l0 65.072205l24.915405 0l0 -64.61018l0 0l69.877686 -122.103386l-24.915405 0l-56.526367 98.50567l-56.30896 -98.50567z" fill-rule="evenodd"/><path stroke="#f2e0d2" stroke-width="1.0" stroke-linejoin="round" stroke-linecap="butt" d="m1746.5183 24.148293l69.87781 121.641365l0 0l0 65.072205l24.915405 0l0 -64.61018l0 0l69.877686 -122.103386l-24.915405 0l-56.526367 98.50567l-56.30896 -98.50567z" fill-rule="evenodd"/></g></svg>